<svg width="63" height="33" viewBox="0 0 63 33" fill="none" xmlns="http://www.w3.org/2000/svg">
<g clip-path="url(#clip0_212_229)">
<path d="M12.9852 10.1088C13.5914 9.88475 14.2379 9.76526 14.9088 9.76526C17.8453 9.76526 20.2969 12.0774 20.8572 15.1512L25.0195 14.2103C24.0659 8.98858 19.9008 5.05737 14.9088 5.05737C13.7638 5.05737 12.6673 5.26349 11.6382 5.64586L12.9852 10.1088Z" fill="white"/>
<path d="M8.07398 25.0629L10.8893 21.535C9.63383 20.3013 8.84178 18.5 8.84178 16.4926C8.84178 14.4881 9.63383 12.6868 10.8893 11.4561L8.07398 7.92517C5.94029 10.0222 4.59326 13.0841 4.59326 16.4926C4.59326 19.904 5.94029 22.9659 8.07398 25.0629" fill="white"/>
<path d="M20.8572 17.8428C20.2942 20.9137 17.8453 23.2228 14.9115 23.2228C14.2379 23.2228 13.5887 23.1033 12.9852 22.8763L11.6382 27.3452C12.6673 27.7246 13.7665 27.9307 14.9115 27.9307C19.8982 27.9307 24.0605 24.0054 25.0195 18.7897L20.8572 17.8428Z" fill="white"/>
<path d="M28.659 21.6814C28.5216 21.4365 28.3384 21.0451 28.2253 20.7554C27.5652 19.0586 27.5356 17.3021 28.0906 15.6173C28.7021 13.7682 29.8713 12.3553 31.3827 11.6323C33.282 10.7272 35.3807 10.9035 37.2018 12.1013C38.3576 12.8362 39.1766 13.9714 39.7989 15.5785C39.877 15.7846 39.9471 16.0027 40.0171 16.1909L28.659 21.6814ZM32.4522 14.3597C31.1025 15.002 30.4074 16.406 30.5529 18.0489L36.2643 15.3216C35.281 14.043 34.004 13.6189 32.4522 14.3597V14.3597ZM36.9755 20.2923C36.9729 20.2923 36.9729 20.2953 36.9729 20.2953L36.8543 20.2057C36.5122 20.8181 35.9814 21.317 35.3106 21.6396C34.0336 22.255 32.851 22.0966 31.9996 21.2692L31.9215 21.4006C31.9215 21.4006 31.9215 21.3976 31.9188 21.3976L30.4694 23.8023C30.8304 24.0802 31.2157 24.3132 31.6198 24.5014C33.22 25.2392 34.858 25.2034 36.4718 24.4267C37.6383 23.8651 38.5543 23.0107 39.1793 21.9264L36.9755 20.2923ZM43.9855 8.09546V21.4604L45.8605 22.3028L44.7964 25.057L42.7273 24.1011C42.264 23.877 41.9461 23.5365 41.709 23.1511C41.48 22.7598 41.3103 22.2191 41.3103 21.4962V8.09546H43.9855ZM48.8402 18.0579C48.8402 16.9198 49.2955 15.8981 50.0121 15.2051L48.0885 12.8272C46.7846 14.1058 45.9629 15.9728 45.9629 18.0519C45.9602 20.134 46.7819 22.004 48.0831 23.2826L50.004 20.9047C49.2901 20.2087 48.8402 19.193 48.8402 18.0579V18.0579ZM52.2562 21.8487C51.879 21.8487 51.5127 21.777 51.1732 21.6515L50.2545 24.6776C50.8822 24.9106 51.5531 25.0391 52.2535 25.0391C55.2978 25.0421 57.8383 22.6463 58.4283 19.4649L55.6049 18.8256C55.2843 20.5552 53.9077 21.8517 52.2562 21.8487V21.8487ZM52.2643 11.0767C51.5665 11.0767 50.8957 11.2022 50.268 11.4322L51.1786 14.4613C51.5207 14.3358 51.8844 14.2671 52.2616 14.2671C53.9158 14.2701 55.2951 15.5725 55.6076 17.3051L58.431 16.6718C57.8518 13.4844 55.3113 11.0797 52.2643 11.0767V11.0767Z" fill="white"/>
</g>
<defs>
<clipPath id="clip0_212_229">
<rect width="63" height="33" fill="white"/>
</clipPath>
</defs>
</svg>
